<svg 

id="ea98b309-543e-44c3-90e2-192dc5159112" 
data-name="Layer 1" 
xmlns="http://www.w3.org/2000/svg" 
viewBox="0 0 294 85">
<defs>
<style>.a19a788c-596f-4250-aefc-e35ae6ecda46{fill:#fff;}</style>
</defs>
<title>PIKU_BLK</title>
<path 
class="a19a788c-596f-4250-aefc-e35ae6ecda46" 
d="M36.27267,1a35.31314,35.31314,0,0,0-29.388,15.70718V5.51987a2.98516,2.98516,0,0,0-5.97031,0v74.1115a3.59577,3.59577,0,0,0,7.19153,0V57.72417A35.35631,35.35631,0,1,0,36.27267,1Zm0,63.52515a28.19879,28.19879,0,0,1-28.1668-28.163v-.00771a28.16681,28.16681,0,1,1,28.1668,28.17067Z"/>
<path class="a19a788c-596f-4250-aefc-e35ae6ecda46" 
d="M194.49054,77.30086l-28.2863-33.24315L192.90178,8.47454a3.59584,3.59584,0,1,0-5.75259-4.316L138.61458,68.84676V5.77577a3.59577,3.59577,0,0,0-7.19153,0V79.63093a3.59564,3.59564,0,0,0,6.47207,2.158l23.88455-31.834L189.0134,81.961a3.59569,3.59569,0,0,0,5.47714-4.66014Z"/>
<circle 
class="a19a788c-596f-4250-aefc-e35ae6ecda46" 
cx="97.69368" 
cy="13.7841" r="9.5887"/>
<path 
class="a19a788c-596f-4250-aefc-e35ae6ecda46" 
d="M97.69368,83.22708a3.59569,3.59569,0,0,1-3.59576-3.59576V49.193a3.59577,3.59577,0,1,1,7.19153,0V79.63132A3.5957,3.5957,0,0,1,97.69368,83.22708Z"/>
<circle 
class="a19a788c-596f-4250-aefc-e35ae6ecda46" 
cx="220.3809" cy="13.7958" r="9.5887"/>
<circle 
class="a19a788c-596f-4250-aefc-e35ae6ecda46" 
cx="283.49696" cy="13.7958" r="9.5887"/>
<path 
class="a19a788c-596f-4250-aefc-e35ae6ecda46" 
d="M251.93893,84c-20.04747,0-36.35716-15.61441-36.35716-34.807a3.59577,3.59577,0,1,1,7.19153,0c0,15.22737,13.0838,27.6155,29.16563,27.6155s29.16563-12.38813,29.16563-27.6155a3.59577,3.59577,0,1,1,7.19153,0C288.29609,68.38559,271.9864,84,251.93893,84Z"/>
</svg>